<svg xmlns="http://www.w3.org/2000/svg" width="32" height="32" fill="none" viewBox="0 0 32 32">
  <path fill="#000" fill-rule="evenodd" d="M20.2 8.5H8.5v15h15V11.8c0-1.546-1.754-3.3-3.3-3.3ZM9 6.2A2.8 2.8 0 0 0 6.2 9v14A2.8 2.8 0 0 0 9 25.8h14a2.8 2.8 0 0 0 2.8-2.8V11.8a5.6 5.6 0 0 0-5.6-5.6H9Z" clip-rule="evenodd"/>
  <path fill="#000" fill-rule="evenodd" d="M13.2 2v5.6H11V2h2.2Zm5.6 11.2v5.6h-5.6v-5.6h5.6Zm-5.6 11.2V30H11v-5.6h2.2Zm7.8 0V30h-2.2v-5.6H21Zm3.4-4.9H30v2.1h-5.6v-2.1ZM2 18.8h5.6V21H2v-2.2ZM2 11h5.6v2.2H2V11Zm20.879-5.667A7 7 0 0 0 20.2 4.8V2.5c1.287 0 2.099.216 3.288.708a9.801 9.801 0 0 1 5.303 5.304c.493 1.19.709 2.001.709 3.288h-2.3a7.001 7.001 0 0 0-4.321-6.467Z" clip-rule="evenodd"/>
</svg>
