<?xml version="1.0" encoding="UTF-8"?>
<svg id="Layer_1" data-name="Layer 1" xmlns="http://www.w3.org/2000/svg" version="1.1" viewBox="0 0 32 32">
  <defs>
    <style>
      .cls-1 {
        fill: #475467;
        fill-rule: evenodd;
        stroke-width: 0px;
      }
    </style>
  </defs>
  <path class="cls-1" d="M20.2,8.5h-11.7v15h15v-11.7c0-1.5-1.8-3.3-3.3-3.3ZM9,6.2c-1.5,0-2.8,1.3-2.8,2.8h0v14c0,1.5,1.3,2.8,2.8,2.8h14c1.5,0,2.8-1.3,2.8-2.8v-11.2c0-3.1-2.5-5.6-5.6-5.6h0s-11.2,0-11.2,0Z"/>
  <path class="cls-1" d="M13.2,2v5.6h-2.2V2h2.2ZM18.8,13.2v5.6h-5.6v-5.6s5.6,0,5.6,0ZM13.2,24.4v5.6h-2.2v-5.6s2.2,0,2.2,0ZM21,24.4v5.6h-2.2v-5.6h2.2ZM24.4,19.5h5.6v2.1h-5.6v-2.1ZM2,18.8h5.6v2.2H2v-2.2ZM2,11h5.6v2.2H2v-2.2ZM22.9,5.3c-.8-.4-1.8-.5-2.7-.5v-2.3c1.3,0,2.1.2,3.3.7,2.4,1,4.3,2.9,5.3,5.3.5,1.2.7,2,.7,3.3h-2.3c0-2.8-1.7-5.4-4.3-6.5Z"/>
</svg>