<?xml version="1.0" encoding="UTF-8"?>
<svg id="Layer_1" data-name="Layer 1" xmlns="http://www.w3.org/2000/svg" version="1.1" viewBox="0 0 22 22">
  <defs>
    <style>
      .cls-1 {
        fill: #475467;
        fill-rule: evenodd;
        stroke-width: 0px;
      }
    </style>
  </defs>
  <path class="cls-1" d="M.9,11C.9,5.4,5.4.9,11,.9c.7,0,1.5,0,2.2.3-3.3.9-5.2,4.4-4.2,7.6.9,3.3,4.4,5.2,7.6,4.2,2-.6,3.6-2.2,4.2-4.2.2.7.3,1.5.2,2.2,0,5.6-4.5,10.1-10.1,10.1S.9,16.6.9,11ZM9.5,12.5c-2.6-2.6-3-6.7-.9-9.8-4.5,1.3-7.1,6.1-5.8,10.7s6.1,7.1,10.7,5.8c2.8-.8,5-3,5.8-5.8-3,2.1-7.2,1.7-9.8-.9Z"/>
</svg>