<?xml version="1.0" encoding="UTF-8"?>
<svg id="Layer_1" data-name="Layer 1" xmlns="http://www.w3.org/2000/svg" version="1.1" viewBox="0 0 32 32">
  <defs>
    <style>
      .cls-1 {
        fill: #475467;
        fill-rule: evenodd;
        stroke-width: 0px;
      }
    </style>
  </defs>
  <path class="cls-1" d="M15.4,5.2c.4-.2.9-.2,1.3,0l11.6,5.9c.5.2.8.8.8,1.3,0,.6-.3,1.1-.8,1.3l-11.6,5.9c-.4.2-.9.2-1.3,0L3.8,13.6c-.5-.3-.8-.8-.8-1.3,0-.6.3-1.1.8-1.3,0,0,11.6-5.9,11.6-5.9ZM6,12.2l10,4.8,10.1-4.8-10.1-5.2-10,5.2Z"/>
  <path class="cls-1" d="M27.6,10.9c.8,0,1.4.7,1.4,1.5v5.9c0,.8-.6,1.5-1.4,1.5s-1.1-.7-1.1-1.5v-5.9c0-.8.3-1.5,1.1-1.5ZM8.8,13.8c.8,0,1.4.7,1.4,1.5v7c0,.1.2.3.6.6.7.5,2.1,1.6,5.2,1.6s4.6-1.1,5.2-1.6c.3-.2.5-.5.6-.6v-7c0-.8.6-1.5,1.4-1.5s1,.7,1,1.5v7.3c0,.1,0,.5-.1.7,0,.2-.2.4-.3.6-.3.4-.7.9-1.3,1.4-1.3,1-2.4,1.8-5.9,1.8s-5.6-.8-6.9-1.8c-.7-.5-1-1.1-1.2-1.2-.4-.3-.5-1-.5-1.4v-7.3c0-.8,0-1.5.8-1.5Z"/>
</svg>