<svg xmlns="http://www.w3.org/2000/svg" width="32" height="32" fill="none" viewBox="0 0 32 32">
  <path fill="#000" fill-rule="evenodd" d="M15.354 5.155a1.425 1.425 0 0 1 1.292 0l11.555 5.866c.49.249.799.757.799 1.312a1.47 1.47 0 0 1-.799 1.312l-11.555 5.867a1.425 1.425 0 0 1-1.292 0L3.798 13.645A1.47 1.47 0 0 1 3 12.333c0-.555.31-1.063.798-1.312l11.556-5.866ZM6 12.167 16 17l10.12-4.833L16 7 6 12.167Z" clip-rule="evenodd"/>
  <path fill="#000" fill-rule="evenodd" d="M27.556 10.867c.797 0 1.444.656 1.444 1.466V18.2c0 .81-.647 1.467-1.444 1.467-.798 0-1.056-.657-1.056-1.467v-5.867c0-.81.258-1.466 1.056-1.466ZM8.778 13.8c.798 0 1.444.657 1.444 1.467v7.038c.072.118.232.335.559.579.664.495 2.139 1.616 5.219 1.616 3.08 0 4.555-1.121 5.219-1.616.327-.244.487-.461.559-.58v-7.037c0-.81.646-1.467 1.444-1.467.798 0 1.017.657 1.017 1.467V22.6c0 .14-.084.515-.14.659a3.647 3.647 0 0 1-.274.56c-.259.433-.674.945-1.325 1.43-1.305.972-2.368 1.751-5.854 1.751s-5.622-.779-6.927-1.75c-.652-.486-1.04-1.105-1.219-1.25-.394-.319-.5-1-.52-1.4v-7.333c0-.81 0-1.467.798-1.467Z" clip-rule="evenodd"/>
</svg>
