<?xml version="1.0" encoding="UTF-8"?>
<svg id="Layer_1" data-name="Layer 1" xmlns="http://www.w3.org/2000/svg" version="1.1" viewBox="0 0 55.3 38.5">
  <defs>
    <style>
      .cls-1 {
        fill: #e3000f;
        fill-rule: evenodd;
        stroke-width: 0px;
      }
    </style>
  </defs>
  <path class="cls-1" d="M4.8,3.9h2.5c.8,0,1.5.7,1.5,1.5v2.5c0,.8-.7,1.5-1.5,1.5h-2.5c-.8,0-1.5-.7-1.5-1.5v-2.5c0-.8.7-1.5,1.5-1.5ZM7.9,15.5h3.6c1.2,0,2.2,1,2.2,2.2v3.6c0,1.2-1,2.2-2.2,2.2h-3.6c-1.2,0-2.2-1-2.2-2.2v-3.6c0-1.2,1-2.2,2.2-2.2ZM1.1,27.7h1.8c.6,0,1.1.5,1.1,1.1v1.8c0,.6-.5,1.1-1.1,1.1h-1.8c-.6,0-1.1-.5-1.1-1.1v-1.8c0-.6.5-1.1,1.1-1.1ZM34.4,6.6h3.1c1.2,0,2.2,1,2.2,2.2v3.1c0,1.2-1,2.2-2.2,2.2h-3.1c-1.2,0-2.2-1-2.2-2.2v-3.1c0-1.2,1-2.2,2.2-2.2ZM27.4,0c-4.4,0-8.2,2.8-9.8,6.7h-1.6c-1.1,0-2,.9-2,2v3.3c0,1.1.9,2,2,2h4.3c1.4,0,2.5,1.1,2.5,2.5v3.5c0,1.4-1.1,2.5-2.5,2.5h-1.5c-1.8,0-1.9.4-1.9,2v1.2h-1.9c-.8,0-1.4.6-1.4,1.4v2.3c0,.8.6,1.4,1.4,1.4h2.2c1.2,4.4,5.3,7.7,10.1,7.7h4.8v-19.1c0-1.1.9-2,2-2h3.3c1.1,0,2,.9,2,2v19.1h5.8c5.5-.3,10-4.9,10-10.5V10.5c0-1.5-.3-3-.9-4.3-.6-1.4-1.8-2.9-3.1-3.9-1.8-1.4-4-2.3-6.5-2.3h-17.5Z"/>
</svg>