<?xml version="1.0" encoding="UTF-8"?>
<svg id="Layer_1" data-name="Layer 1" xmlns="http://www.w3.org/2000/svg" version="1.1" viewBox="0 0 20 20">
  <defs>
    <style>
      .cls-1 {
        fill: #475467;
        fill-rule: evenodd;
        stroke-width: 0px;
      }
    </style>
  </defs>
  <path class="cls-1" d="M10,0C4.5,0,0,4.5,0,10s4.5,10,10,10,10-4.5,10-10S15.5,0,10,0ZM9,17.9c-3.9-.5-7-3.9-7-7.9s0-1.2.2-1.8l4.8,4.8v1c0,1.1.9,2,2,2v1.9ZM15.9,15.4c-.3-.8-1-1.4-1.9-1.4h-1v-3c0-.6-.4-1-1-1h-6v-2h2c.6,0,1-.4,1-1v-2h2c1.1,0,2-.9,2-2v-.4c2.9,1.2,5,4.1,5,7.4s-.8,4-2.1,5.4Z"/>
</svg>