<?xml version="1.0" encoding="UTF-8"?>
<svg id="Layer_1" data-name="Layer 1" xmlns="http://www.w3.org/2000/svg" version="1.1" viewBox="0 0 24 24">
  <defs>
    <style>
      .cls-1 {
        fill: #475467;
        fill-rule: evenodd;
        stroke-width: 0px;
      }
    </style>
  </defs>
  <path class="cls-1" d="M12,16c2.2,0,4-1.8,4-4s-1.8-4-4-4-4,1.8-4,4,1.8,4,4,4ZM12,18c3.3,0,6-2.7,6-6s-2.7-6-6-6-6,2.7-6,6,2.7,6,6,6ZM11,0h2v4.1c-.7,0-1.3,0-2,0V0ZM7.1,5.7l-2.9-2.9-1.4,1.4,2.9,2.9c.4-.5.9-1,1.4-1.4ZM4.1,11H0v2h4.1c0-.7,0-1.3,0-2ZM5.7,16.9l-2.9,2.9,1.4,1.4,2.9-2.9c-.5-.4-1-.9-1.4-1.4ZM11,19.9v4.1h2v-4.1c-.7,0-1.3,0-2,0ZM16.9,18.3l2.9,2.9,1.4-1.4-2.9-2.9c-.4.5-.9,1-1.4,1.4ZM19.9,13h4.1v-2h-4.1c0,.7,0,1.3,0,2ZM18.3,7.1l2.9-2.9-1.4-1.4-2.9,2.9c.5.4,1,.9,1.4,1.4Z"/>
</svg>