<?xml version="1.0" encoding="UTF-8"?>
<svg id="Layer_1" data-name="Layer 1" xmlns="http://www.w3.org/2000/svg" version="1.1" viewBox="0 0 24 24">
  <defs>
    <style>
      .cls-1 {
        fill: #475467;
        stroke-width: 0px;
      }

      .cls-2, .cls-3 {
        fill: none;
        stroke: #475467;
        stroke-width: 2px;
      }

      .cls-3 {
        stroke-linecap: round;
      }
    </style>
  </defs>
  <circle class="cls-3" cx="12" cy="8" r="3"/>
  <path class="cls-2" d="M15.3,8c.5-1,1.8-1.3,2.7-.8s1.3,1.8.8,2.7c0,0,0,0,0,0-.6,1-1.8,1.3-2.7.7-.9-.6-1.3-1.8-.7-2.7ZM5.3,8c.5-1,1.8-1.3,2.7-.8,1,.5,1.3,1.8.8,2.7,0,0,0,0,0,0-.6,1-1.8,1.3-2.7.7-.9-.6-1.3-1.8-.7-2.7Z"/>
  <path class="cls-1" d="M16.9,18l-1,.2.2.8h.8v-1ZM20.7,16.9l.9-.3-.9.3ZM14.8,14.7l-.6-.8-1.2.9,1.2.8.5-.9h0ZM19.9,17h-3v2h3v-2ZM19.8,17.2s0,0,0-.1c0,0,0,0,0,0,0,0,0,0,0,0v2c1.1,0,2.3-1.1,1.8-2.4l-1.9.7h0ZM17,15c1.6,0,2.4,1.2,2.8,2.2l1.9-.7c-.5-1.3-1.7-3.6-4.7-3.6v2ZM15.4,15.5c.4-.3.9-.5,1.6-.5v-2c-1.2,0-2.1.4-2.8.9,0,0,1.2,1.6,1.2,1.6ZM14.3,15.6c1,.6,1.5,1.8,1.6,2.6l2-.4c-.2-1.1-.8-2.9-2.6-3.9,0,0-1.1,1.7-1.1,1.7ZM9.2,14.7l.5.9,1.2-.8-1.2-.9-.6.8h0ZM3.3,16.9l.9.3-.9-.3ZM7.1,18v1h.8l.2-.8-1-.2h0ZM7,15c.7,0,1.2.2,1.6.5l1.2-1.6c-.7-.6-1.7-.9-2.8-.9v2ZM4.2,17.2c.4-1.1,1.1-2.2,2.8-2.2v-2c-2.9,0-4.2,2.3-4.7,3.6l1.9.7ZM4.1,17s0,0,0,0c0,0,0,0,0,0,0,0,0,0,0,.1l-1.9-.7c-.5,1.3.7,2.4,1.8,2.4v-2h0ZM7.1,17h-3v2h3v-2ZM8.1,18.2c.2-.9.6-2,1.6-2.6l-1.1-1.7c-1.7,1.1-2.3,2.9-2.6,3.9l2,.4h0Z"/>
  <path class="cls-3" d="M12,14c3.6,0,4.6,2.6,4.9,4,.1.5-.3,1-.9,1h-8c-.6,0-1-.5-.9-1,.3-1.5,1.3-4,4.9-4Z"/>
</svg>