<?xml version="1.0" encoding="UTF-8"?>
<svg id="Layer_1" data-name="Layer 1" xmlns="http://www.w3.org/2000/svg" version="1.1" viewBox="0 0 24 24">
  <defs>
    <style>
      .cls-1, .cls-2 {
        fill: none;
        stroke: #475467;
        stroke-width: 2px;
      }

      .cls-2 {
        stroke-linecap: round;
        stroke-linejoin: round;
      }
    </style>
  </defs>
  <path class="cls-2" d="M14.5,21v-5c0-.6-.4-1-1-1h-3c-.6,0-1,.4-1,1v5"/>
  <path class="cls-1" d="M5,11v6c0,1.9,0,2.8.6,3.4s1.5.6,3.4.6h6c1.9,0,2.8,0,3.4-.6s.6-1.5.6-3.4v-6M4.6,4.5c.2-.7.3-1.1.5-1.3.3-.2.6-.2,1.4-.2h10.9c.8,0,1.1,0,1.4.2.3.2.4.6.5,1.3l1.2,4.8c0,.4.1.6.1.7,0,.4-.3.8-.7.9-.1,0-.4,0-.8,0s-.8,0-1,0c-.6-.1-1.1-.6-1.4-1.2,0-.2-.1-.5-.2-1,0-.1,0-.2,0-.2,0,0,0,0-.1,0,0,0,0,0,0,0,0,0,0,0,0,.2v.5c-.2,1-1,1.7-2,1.7h-.2c-1,0-1.8-.8-1.9-1.7v-.5c-.1-.1-.1-.2-.1-.2,0,0,0,0-.1,0,0,0,0,0,0,0,0,0,0,0,0,.2v.5c-.2,1-1,1.7-2,1.7h-.2c-.9,0-1.7-.7-1.9-1.6,0,0,0,0,0-.1v-.5c-.1-.1-.1-.2-.1-.2,0,0,0,0-.1,0,0,0,0,0,0,0,0,0,0,0,0,.2,0,.5-.1.8-.2,1-.2.6-.8,1-1.4,1.2-.2,0-.5,0-1,0s-.6,0-.8,0c-.4-.1-.7-.5-.7-.9,0-.2,0-.4.1-.7l1.2-4.8h0Z"/>
</svg>