<?xml version="1.0" encoding="UTF-8"?>
<svg id="Layer_1" data-name="Layer 1" xmlns="http://www.w3.org/2000/svg" version="1.1" viewBox="0 0 24 24">
  <defs>
    <style>
      .cls-1 {
        fill: #475467;
        stroke-width: 0px;
      }
    </style>
  </defs>
  <path class="cls-1" d="M14.1,3.4h1c0,0-1,0-1,0ZM14,2.5l-.9.5.9-.5h0ZM14.4,4.8l.8-.6-.8.6ZM15.4,5.2v-1c-.1,0,0,1,0,1h0ZM16.6,4.4l.6.8-.6-.8h0ZM17.3,3.9l.3,1-.3-1ZM18,3.9l.4-.9-.4.9ZM18.6,4.5l-.7.7.7-.7ZM19.5,5.4l.7-.7-.7.7ZM20.1,6l.9-.4-.9.4ZM20.1,6.7l1,.3-1-.3ZM19.6,7.4l-.8-.6.8.6ZM18.8,8.6h-1c0-.1,1,0,1,0ZM19.2,9.6l-.6.8.6-.8ZM20.6,9.9v-1c0,0,0,1,0,1h0ZM21.5,10l.5-.9-.5.9h0ZM21.9,10.5l.9-.4-.9.4ZM21.9,13.5l-.9-.4.9.4ZM21.5,14l.5.9-.5-.9ZM20.6,14.1v-1c0,0-.1,0-.1,0h0s.2,1,.2,1h0ZM20.6,14.1v1c.1,0,.1,0,.1,0h0s-.2-1-.2-1h0ZM19.2,14.4l-.6-.8.6.8h0ZM18.8,15.4h-1c0,.1,1,0,1,0h0ZM19.6,16.6l-.8.6.8-.6ZM20.1,17.3l-1,.3,1-.3ZM20.1,18l-.9-.4.9.4ZM19.5,18.6l.7.7-.7-.7ZM18.6,19.5l-.7-.7.7.7ZM18,20.1l.4.9-.4-.9ZM17.3,20.1l-.3,1,.3-1ZM16.6,19.6l.6-.8h0s-.6.8-.6.8ZM16.6,19.6l-.6.8h0s.6-.8.6-.8h0ZM15.4,18.8v-1c.1,0,0,1,0,1h0ZM14.4,19.2l.8.6-.8-.6ZM14.1,20.6h-1c0-.1,1,0,1,0ZM14,21.5l-.9-.5.9.5h0ZM13.5,21.9l-.4-.9.4.9ZM10.5,21.9l.4-.9-.4.9ZM10,21.5l.9-.5-.9.5h0ZM9.9,20.6h-1c0,.1,1,0,1,0ZM9.6,19.2l-.8.6.8-.6ZM8.6,18.8v-1c-.1,0,0,1,0,1h0ZM7.4,19.6l-.6-.8h0s0,0,0,0l.7.7h0ZM7.4,19.6l.6.8h0s0,0,0,0l-.7-.7h0ZM6.7,20.1l.3,1-.3-1ZM6,20.1l-.4.9s.4-.9.4-.9ZM5.4,19.5l.7-.7s-.7.7-.7.7ZM4.5,18.6l-.7.7.7-.7ZM3.9,18l.9-.4s-.9.4-.9.4ZM3.9,17.3l1,.3s-1-.3-1-.3ZM4.4,16.6l.8.6-.8-.6ZM5.2,15.4h1c0,.1-1,0-1,0ZM4.8,14.4l.6-.8-.6.8ZM3.4,14.1v1c0,0,0-1,0-1ZM2.5,14l.5-.9-.5.9h0ZM2.1,13.5l-.9.4.9-.4ZM2.1,10.5l-.9-.4.9.4ZM2.5,10l-.5-.9.5.9h0ZM3.4,9.9v-1h0s0,1,0,1h0ZM3.4,9.9v1h0s0-1,0-1ZM4.8,9.6l-.6-.8.6.8ZM5.2,8.6h1c0-.1-1,0-1,0ZM4.4,7.4l.8-.6-.8.6h0ZM3.9,6.7l1-.3-1,.3ZM3.9,6l-.9-.4.9.4ZM4.5,5.4l.7.7s-.7-.7-.7-.7ZM5.4,4.5l-.7-.7.7.7ZM6,3.9l-.4-.9.4.9ZM6.7,3.9l.3-1-.3,1ZM7.4,4.4l.6-.8s-.6.8-.6.8ZM8.6,5.2v-1c.1,0,0,1,0,1ZM9.6,4.8l-.8-.6.8.6h0ZM9.9,3.4h1c0,0-1,0-1,0ZM10,2.5l-.9-.5.9.5h0ZM10.5,2.1l.4.9-.4-.9ZM13.5,2.1l.4-.9-.4.9ZM15.1,3.3c0-.2,0-.4,0-.6,0-.2,0-.4-.2-.6l-1.8.9s0,0,0,0c0,0,0,.2,0,.4l2-.2h0ZM15.2,4.2c0,0,0,.1,0,0,0-.2,0-.4-.1-.9l-2,.2c0,.4,0,.7.1,1,0,.3.1.6.4.9l1.6-1.2h0ZM15.2,4.2l-1.6,1.2c.4.6,1.1.9,1.9.8l-.3-2h0ZM16,3.6c-.2.2-.5.4-.7.5-.2.1-.2,0,0,0l.3,2c.4,0,.7-.2.9-.4.2-.2.5-.4.8-.6,0,0-1.3-1.5-1.3-1.5ZM17,3c-.2,0-.4.2-.6.3-.1,0-.3.2-.5.4l1.3,1.5c.2-.1.3-.2.4-.3,0,0,0,0,0,0,0,0-.6-1.9-.6-1.9ZM18.4,3c-.4-.2-.9-.2-1.4,0l.6,1.9s.8-1.8.8-1.8ZM19.3,3.8c-.1-.1-.3-.3-.4-.4-.2-.1-.3-.3-.5-.3l-.8,1.8s0,0,0,0c0,0,.2.1.3.3,0,0,1.4-1.4,1.4-1.4ZM20.2,4.7l-.9-.9-1.4,1.4.9.9,1.4-1.4ZM21,5.6c0-.2-.2-.4-.3-.5-.1-.1-.3-.3-.4-.4l-1.4,1.4c.2.2.2.3.3.3,0,0,0,0,0,0l1.8-.8h0ZM21,7c.1-.5.1-1,0-1.4l-1.8.8,1.9.6ZM20.4,8c.1-.1.2-.3.4-.5.1-.1.2-.3.3-.6l-1.9-.6s0,0,0,0c0,0-.1.2-.3.3,0,0,1.5,1.3,1.5,1.3ZM19.8,8.8c0,.1,0,.1,0,0,.1-.2.3-.4.5-.7l-1.5-1.3c-.2.3-.5.6-.6.8-.2.2-.3.5-.4.9l2,.3ZM19.8,8.8l-2-.3c0,.7.2,1.4.8,1.9l1.2-1.6ZM20.7,8.9c-.3,0-.6,0-.9-.1-.2,0-.2,0,0,0l-1.2,1.6c.3.2.7.3.9.4.3,0,.6,0,1,.1,0,0,.2-2,.2-2ZM21.9,9.1c-.2,0-.4-.2-.6-.2-.2,0-.4,0-.6,0l-.2,2c.1,0,.3,0,.4,0,0,0,0,0,0,0l.9-1.8h0ZM22.9,10.2c-.2-.5-.5-.8-.9-1l-.9,1.8,1.9-.7h0ZM23,11.4c0-.2,0-.4,0-.6,0-.2,0-.4-.1-.6l-1.9.7s0,0,0,0c0,0,0,.2,0,.4h2,0ZM23,12.6v-1.3h-2v1.3h2ZM22.9,13.8c0-.2.1-.4.1-.6,0-.2,0-.4,0-.6h-2c0,.2,0,.4,0,.4,0,0,0,0,0,0l1.9.7ZM21.9,14.9c.4-.2.8-.6.9-1l-1.9-.7.9,1.8h0ZM20.7,15.1c.2,0,.4,0,.6,0,.2,0,.4,0,.6-.2l-.9-1.8s0,0,0,0c-.1,0-.3,0-.4,0l.2,2h0ZM20.8,15.1l-.3-2s.3,2,.3,2ZM19.8,15.2c0,0-.1,0,0,0,.2,0,.4,0,.9-.1l-.2-2c-.4,0-.7,0-1,.1-.3,0-.6.1-.9.4,0,0,1.2,1.6,1.2,1.6ZM19.8,15.2l-1.2-1.6c-.6.4-.9,1.1-.8,1.9l2-.3ZM20.4,16c-.2-.2-.4-.5-.5-.7-.1-.2,0-.2,0,0l-2,.3c0,.4.2.7.4.9.2.2.4.5.6.8,0,0,1.5-1.3,1.5-1.3ZM21,17c0-.2-.2-.4-.3-.6-.1-.1-.2-.3-.4-.5l-1.5,1.3c.1.2.2.3.3.3,0,0,0,0,0,0,0,0,1.9-.6,1.9-.6ZM21,18.4c.2-.4.2-.9,0-1.4l-1.9.6,1.8.8ZM20.2,19.3c.1-.1.3-.3.4-.4.1-.1.2-.3.3-.5l-1.8-.8s0,0,0,0c0,0-.1.2-.3.3,0,0,1.4,1.4,1.4,1.4ZM19.3,20.2l.9-.9-1.4-1.4-.9.9,1.4,1.4h0ZM18.4,21c.2,0,.4-.2.5-.3.1-.1.3-.3.4-.4l-1.4-1.4c-.1.1-.2.2-.3.3,0,0,0,0,0,0,0,0,.8,1.8.8,1.8ZM17,21c.5.1,1,.1,1.4,0l-.8-1.8s-.6,1.9-.6,1.9ZM16,20.4c.2.1.3.3.5.4.1.1.3.2.6.3l.6-1.9s0,0,0,0c-.1,0-.2-.2-.3-.3l-1.3,1.5h0ZM16,20.4l1.2-1.6-1.2,1.6ZM15.2,19.8c-.1,0-.1,0,0,0,.2.1.4.3.7.5l1.3-1.5c-.3-.3-.6-.5-.8-.6-.2-.2-.5-.3-.9-.4l-.3,2h0ZM15.2,19.8l.3-2c-.7,0-1.4.2-1.9.8l1.6,1.2h0ZM15.1,20.7c0-.4,0-.7.1-.9,0-.2,0-.2,0,0l-1.6-1.2c-.2.3-.3.7-.4.9,0,.3,0,.6-.1,1,0,0,2,.2,2,.2ZM14.9,21.9c.1-.2.2-.4.2-.6,0-.2,0-.4,0-.6l-2-.2c0,.1,0,.3,0,.4,0,0,0,0,0,0,0,0,1.8.9,1.8.9ZM13.8,22.9c.4-.2.8-.5,1-.9l-1.8-.9.7,1.9h0ZM12.6,23c.2,0,.4,0,.6,0,.2,0,.4,0,.6-.1l-.7-1.9s0,0,0,0c-.1,0-.3,0-.4,0v2h0ZM11.4,23h1.3v-2h-1.3v2ZM10.2,22.9c.2,0,.4.1.6.1.2,0,.4,0,.6,0v-2c-.2,0-.4,0-.4,0,0,0,0,0,0,0l-.7,1.9ZM9.1,21.9c.2.4.6.8,1,.9l.7-1.9-1.8.9h0ZM8.9,20.7c0,.2,0,.4,0,.6,0,.2,0,.4.2.6l1.8-.9s0,0,0,0c0-.1,0-.3,0-.4l-2,.2h0ZM8.8,19.8c0,0,0-.1,0,0,0,.2,0,.4.1.9l2-.2c0-.4,0-.7-.1-1,0-.3-.1-.6-.4-.9,0,0-1.6,1.2-1.6,1.2ZM8.8,19.8l1.6-1.2c-.4-.6-1.1-.9-1.9-.8l.3,2ZM8,20.4c.3-.3.5-.4.7-.5.2-.1.2,0,0,0l-.3-2c-.4,0-.7.2-.9.4-.2.2-.5.4-.8.6l1.3,1.5ZM8.1,20.4l-1.3-1.5s1.3,1.5,1.3,1.5ZM7,21c.2,0,.4-.2.6-.3.1-.1.3-.2.5-.4l-1.3-1.5c-.1,0-.2.2-.3.3,0,0,0,0,0,0l.6,1.9h0ZM5.6,21c.4.2.9.2,1.4,0l-.6-1.9s-.8,1.8-.8,1.8ZM4.7,20.2c.1.1.3.3.4.4.1.1.3.2.5.3l.8-1.8s0,0,0,0c-.1-.1-.2-.2-.3-.3,0,0-1.4,1.4-1.4,1.4ZM3.8,19.3l.9.9,1.4-1.4-.9-.9-1.4,1.4ZM3,18.4c0,.2.2.4.3.5.1.1.3.3.4.4l1.4-1.4c-.1-.1-.2-.2-.3-.3,0,0,0,0,0,0,0,0-1.8.8-1.8.8ZM3,17c-.1.5-.1,1,0,1.4l1.8-.8-1.9-.6ZM3.6,16c-.1.1-.2.3-.4.5-.1.2-.2.4-.3.6l1.9.6s0,0,0,0c0,0,.1-.2.3-.3l-1.5-1.3ZM4.2,15.2c0-.1,0-.1,0,0-.1.2-.3.4-.5.7l1.5,1.3c.2-.3.5-.6.6-.8.2-.2.3-.5.4-.9l-2-.3ZM4.2,15.2l2,.3c0-.7-.2-1.4-.8-1.9l-1.2,1.6ZM3.3,15.1c.4,0,.7,0,.9.1.2,0,.2,0,0,0l1.2-1.6c-.3-.2-.7-.3-.9-.4-.3,0-.6,0-1-.1l-.2,2h0ZM2.1,14.9c.2.1.4.2.6.2.2,0,.4,0,.6,0l.2-2c-.1,0-.3,0-.4,0,0,0,0,0,0,0l-.9,1.8h0ZM1.1,13.8c.2.5.5.8.9,1l.9-1.8-1.9.7ZM1,12.6c0,.2,0,.4,0,.6,0,.2,0,.4.1.6l1.9-.7s0,0,0,0c0-.1,0-.3,0-.4H1ZM1,11.4v1.3h2v-1.3H1ZM1.1,10.2c0,.2-.1.4-.1.6,0,.2,0,.4,0,.6h2c0-.2,0-.4,0-.4,0,0,0,0,0,0l-1.9-.7ZM2.1,9.1c-.4.2-.8.6-.9,1l1.9.7s-.9-1.8-.9-1.8ZM3.3,8.9c-.2,0-.4,0-.6,0-.2,0-.4,0-.6.2l.9,1.8s0,0,0,0c.1,0,.3,0,.4,0l-.2-2h0ZM3.4,8.9v2-2ZM3.4,8.9v2-2ZM4.2,8.8c0,0,.1,0,0,0-.2,0-.4,0-.9.1l.2,2c.4,0,.7,0,1-.1.3,0,.6-.1.9-.4,0,0-1.2-1.6-1.2-1.6ZM4.2,8.8l1.2,1.6c.6-.4.9-1.1.8-1.9,0,0-2,.3-2,.3ZM3.6,8c.3.3.4.5.5.7.1.2,0,.2,0,0l2-.3c0-.4-.2-.7-.4-.9-.2-.2-.4-.5-.6-.8,0,0-1.5,1.3-1.5,1.3ZM3,7c0,.2.2.4.3.6,0,.1.2.3.4.5l1.5-1.3c0-.1-.2-.2-.3-.3,0,0,0,0,0,0l-1.9.6h0ZM3,5.6c-.2.4-.2.9,0,1.4l1.9-.6s-1.8-.8-1.8-.8ZM3.8,4.7c-.1.1-.3.3-.4.4-.1.2-.3.3-.3.5l1.8.8s0,0,0,0c0,0,.1-.2.3-.3,0,0-1.4-1.4-1.4-1.4ZM4.7,3.8l-.9.9,1.4,1.4.9-.9-1.4-1.4h0ZM4.7,3.8l1.4,1.4-1.4-1.4ZM5.6,3c-.2,0-.4.2-.5.3-.1.1-.3.3-.4.4l1.4,1.4c.2-.2.3-.3.3-.3,0,0,0,0,0,0,0,0-.8-1.8-.8-1.8ZM7,3c-.5-.1-1-.1-1.4,0l.8,1.8.6-1.9ZM8,3.6c-.2-.1-.3-.3-.5-.4-.2-.1-.4-.2-.6-.3l-.6,1.9s0,0,0,0c0,0,.2.1.3.3l1.3-1.5h0ZM8.8,4.2c.1,0,.1,0,0,0-.2-.2-.5-.4-.7-.5l-1.3,1.5c.3.2.6.5.8.6.2.2.5.3.9.4l.3-2h0ZM8.8,4.2l-.3,2c.7,0,1.4-.2,1.9-.8l-1.6-1.2ZM8.9,3.3c0,.4,0,.7-.1.9,0,.2,0,.2,0,0l1.6,1.2c.2-.3.3-.7.4-.9,0-.3,0-.6.1-1l-2-.2h0ZM9.1,2.1c0,.2-.2.4-.2.6,0,.2,0,.4,0,.6l2,.2c0-.1,0-.3,0-.4,0,0,0,0,0,0,0,0-1.8-.9-1.8-.9ZM10.2,1.1c-.5.2-.8.5-1,.9l1.8.9s-.7-1.9-.7-1.9ZM11.4,1c-.2,0-.4,0-.6,0-.2,0-.4,0-.6.1l.7,1.9s0,0,0,0c0,0,.2,0,.4,0V1h0ZM12.6,1h-1.3v2h1.3V1ZM13.8,1.1c-.2,0-.4-.1-.6-.1-.2,0-.4,0-.6,0v2c.2,0,.4,0,.4,0,0,0,0,0,0,0l.7-1.9h0ZM14.9,2.1c-.2-.4-.6-.8-1-.9l-.7,1.9,1.8-.9h0ZM15,12c0,1.7-1.3,3-3,3v2c2.8,0,5-2.2,5-5h-2ZM12,9c1.7,0,3,1.3,3,3h2c0-2.8-2.2-5-5-5v2ZM9,12c0-1.7,1.3-3,3-3v-2c-2.8,0-5,2.2-5,5h2ZM12,15c-1.7,0-3-1.3-3-3h-2c0,2.8,2.2,5,5,5v-2Z"/>
</svg>